<svg xmlns="http://www.w3.org/2000/svg" width="38.55431" height="29.80658" viewBox="0 0 38.55431 29.80658"><title>icon_senkyocom_small</title><path d="M38.10112,12.51315H31.12028v-1.043h6.98a.45261.45261,0,0,0,.451-.45138V9.37334a.45237.45237,0,0,0-.451-.45092h-6.98V7.85074s3.22362.00043,3.23037,0a.44849.44849,0,0,0,.24436-.81215s-2.17082-1.25353-2.61462-1.50973a1.99578,1.99578,0,0,0-.84212-.22558H28.08005a1.9957,1.9957,0,0,0-.84078.22512c-.5595.32282-2.59263,1.49686-2.62928,1.51773a.448.448,0,0,0,.25422.80461l.02.00221.01987-.00221h3.21761V8.92242H21.11874a.45234.45234,0,0,0-.45126.45092v1.64538a.45258.45258,0,0,0,.45126.45138h7.00294v1.043H21.11786a.45238.45238,0,0,0-.451.45113v1.64518a.45257.45257,0,0,0,.451.45135h7.00382v1.07836h-2.4673a.4524.4524,0,0,0-.451.45115v.96843a.4524.4524,0,0,0,.451.45115h5.01487a.45234.45234,0,0,0,.451-.45115V15.06081h6.98084a.45251.45251,0,0,0,.451-.45135V12.96428A.45232.45232,0,0,0,38.10112,12.51315Zm.0603-7.59617-1.20813-.6976h1.14783a.45222.45222,0,0,0,.451-.45092V2.12307a.45242.45242,0,0,0-.451-.45115H36.47394s.71767-.93692.74043-.97855A.44436.44436,0,0,0,37.27032.4808a.45132.45132,0,0,0-.43171-.44926l-.019-.002-.01933.002H34.48688A.99354.99354,0,0,0,33.772.39732l-.94247,1.2746h-1.211L30.66491.396a1.00076,1.00076,0,0,0-.71679-.36444H27.70549l-.019-.002-.01919.002a.44693.44693,0,0,0-.36589.6807c.01621.02176.71924.95968.71924.95968H26.33231L25.38018.3962a1.0002,1.0002,0,0,0-.71667-.36466H22.43643l-.019-.002-.01933.002a.45161.45161,0,0,0-.43205.44926.44465.44465,0,0,0,.07093.24c.0109.01444.72236.95113.72236.95113h-1.6415a.45248.45248,0,0,0-.451.45115V3.76846a.45228.45228,0,0,0,.451.45092h1.14761l-.39075.22569s-.69536.40175-.81747.47211a.86657.86657,0,0,0-.39043.6765s-.00157,1.74419,0,1.75817a.45087.45087,0,0,0,.427.407h.03986a.45124.45124,0,0,0,.16562-.04l5.67049-3.27379a1.99682,1.99682,0,0,1,.84169-.22569h3.59538a1.99739,1.99739,0,0,1,.842.22569l5.68092,3.28a.44136.44136,0,0,0,.1552.036h.03973a.45031.45031,0,0,0,.42739-.41295c.00089-.012,0-1.7544,0-1.7544A.866.866,0,0,0,38.16142,4.917Z" fill="#67b1c0"/><path d="M17.46162,10.13086a.45232.45232,0,0,0,.451-.45113V8.71128a.45214.45214,0,0,0-.451-.45092H15.88883V7.19821h1.53649a.45235.45235,0,0,0,.451-.45092V5.992a.45235.45235,0,0,0-.451-.45092H15.16959V4.44473h2.25573a.45241.45241,0,0,0,.451-.45115v-3.52a.45249.45249,0,0,0-.451-.45115H12.62205a.45239.45239,0,0,0-.45093.45115v.75509a.45222.45222,0,0,0,.45093.451h2.25572V2.78725H12.62205a.45247.45247,0,0,0-.45093.45124v3.5088a.41437.41437,0,0,0,.35955.45092h.35969V8.26036H10.43293V7.19821h.2773a.49159.49159,0,0,0,.41-.45092V5.992a.45241.45241,0,0,0-.45136-.45092H8.41322V4.44473h2.25561a.45247.45247,0,0,0,.45136-.45115v-3.52a.45255.45255,0,0,0-.45136-.45115H5.86567a.45242.45242,0,0,0-.45106.45115v.75509a.45225.45225,0,0,0,.45106.451H8.12126V2.78725H5.86567a.45249.45249,0,0,0-.45106.45124v3.5088a.45228.45228,0,0,0,.45106.45092H7.4341V8.26036H5.86567a.45215.45215,0,0,0-.45106.45092v.96845a.45233.45233,0,0,0,.45106.45113H7.4341v1.08436H5.86567a.45248.45248,0,0,0-.45106.45115v.96843a.45234.45234,0,0,0,.45106.45115H6.896l-.958,1.19092a.44957.44957,0,0,0,.36644.694H8.22206a1.0696,1.0696,0,0,0,.73377-.35169L10.18892,13.086h2.91124l1.233,1.53326a1.06914,1.06914,0,0,0,.73356.35169s1.92348.00022,1.93181,0a.44822.44822,0,0,0,.35534-.69L16.393,13.086h1.06858a.45234.45234,0,0,0,.451-.45115v-.96843a.45248.45248,0,0,0-.451-.45115H15.88883V10.13086Zm-4.57126,1.08436H10.43293V10.13086h2.45743Zm4.62544,4.29251H4.35226v-9.772a.45241.45241,0,0,0-.451-.45115H.45138A.45241.45241,0,0,0,0,5.73577V7.33564a.45241.45241,0,0,0,.45138.45115h.90227v7.72094H.45138A.45232.45232,0,0,0,0,15.95845v1.6003a.45241.45241,0,0,0,.45138.45115H17.43464a.4524.4524,0,0,0,.451-.45115v-1.6003A.41755.41755,0,0,0,17.5158,15.50773ZM1.87651,3.88447a.45271.45271,0,0,0,.6381,0L4.07185,2.327a.45214.45214,0,0,0,0-.638L2.51461.13155a.45267.45267,0,0,0-.6381,0L.31929,1.689a.45211.45211,0,0,0,0,.638Z" fill="#eb6863"/><path d="M28.50694,22.42557A3.48051,3.48051,0,0,0,27.05951,20.978c-.02431-.01277-.04954-.02407-.07419-.03644a3.44594,3.44594,0,0,0-1.54317-.364h-3.0026a.23151.23151,0,0,0-.23108.231v1.38612a.23149.23149,0,0,0,.23108.231h3.18953A1.62877,1.62877,0,0,1,27.05951,23.856c.00241.02189.00286,2.647,0,2.67234a1.62835,1.62835,0,0,1-1.43043,1.43032H22.43955a.23154.23154,0,0,0-.23108.23119v1.386a.23128.23128,0,0,0,.23108.23073h3.0026a3.45005,3.45005,0,0,0,1.54317-.3638c.02465-.01244.04988-.02362.07419-.03651a3.47872,3.47872,0,0,0,1.44743-1.44766c.01289-.02442.0243-.04954.03665-.07419a3.44832,3.44832,0,0,0,.36378-1.543V24.04285a3.44817,3.44817,0,0,0-.36378-1.54312C28.53124,22.47509,28.51983,22.45,28.50694,22.42557Z" fill="#8ec66c"/><path d="M21.02464,24.26218H17.32847a.23166.23166,0,0,1-.23122-.231V20.79692a.23161.23161,0,0,0-.23107-.231H15.4799a.23153.23153,0,0,0-.231.231v8.77893a.23125.23125,0,0,0,.231.23073h1.38628a.23133.23133,0,0,0,.23107-.23073V26.34137a.23166.23166,0,0,1,.23122-.231h3.69617a.23181.23181,0,0,0,.23122-.231V24.49328A.23191.23191,0,0,0,21.02464,24.26218Z" fill="#b17bb2"/><path d="M38.45538,26.82762l-.00546-.01655c-.081-.23133-.78763-1.87492-.78763-1.87492l-.00059-.00136A.38123.38123,0,0,0,37.34,24.7239H35.88459a.14294.14294,0,0,0-.14173.21316L36.17,25.95749l.51661,1.234c.179.40978.05808.76708-.33894.76708h-4.033c-.43991,0-.58885-.3937-.41995-.76139l.10237-.20609,1.98912-4.00428,1.09427-2.20244v-.00027a.132.132,0,0,0-.12839-.20661H33.50428a.41616.41616,0,0,0-.33655.2054l-2.89509,5.67541a3.75888,3.75888,0,0,0-.19193.48236,2.67247,2.67247,0,0,0-.06916.41286c-.00284.04736-.00639.09494-.00639.14289a2.3101,2.3101,0,0,0,2.31038,2.31013h3.92865a2.31016,2.31016,0,0,0,2.21119-2.979Z" fill="#ec91ba"/><path d="M9.84594,26.62573h1.13133a.23187.23187,0,0,0,.23131-.2313V24.4669a.23175.23175,0,0,0-.23131-.231H9.84594a.23172.23172,0,0,0-.2311.231v1.92753A.23184.23184,0,0,0,9.84594,26.62573Zm3.7158-2.39984H12.43018a.23172.23172,0,0,0-.23087.23122v2.52308a1.23238,1.23238,0,0,1-1.23322,1.23311H7.65087a.23162.23162,0,0,0-.231.231v1.13156a.23133.23133,0,0,0,.231.23073h3.15407a3.21418,3.21418,0,0,0,1.354-.2805c.02876-.01369.0582-.0268.08637-.04154a2.99734,2.99734,0,0,0,1.24832-1.24818c.01505-.02865.02805-.05843.042-.08765a3.13868,3.13868,0,0,0,.2572-1.32966V24.45711A.2319.2319,0,0,0,13.56174,24.22589ZM7.64733,26.62573H8.77884a.23184.23184,0,0,0,.23108-.2313V24.4669a.23171.23171,0,0,0-.23108-.231H7.64733a.23173.23173,0,0,0-.231.231v1.92753A.23185.23185,0,0,0,7.64733,26.62573Z" fill="#65b0e2"/><path d="M5.77732,24.26218H2.08092a.23168.23168,0,0,1-.231-.231V20.79692a.2316.2316,0,0,0-.231-.231H.23283a.23172.23172,0,0,0-.231.231v8.77893a.23144.23144,0,0,0,.231.23073H1.61892a.23132.23132,0,0,0,.231-.23073V26.34137a.23168.23168,0,0,1,.231-.231h3.6964a.23155.23155,0,0,0,.231-.231V24.49328A.23165.23165,0,0,0,5.77732,24.26218Z" fill="#fac60d"/><path d="M2.90633,21.72781H4.20082a.231.231,0,0,1,.231.231v1.27967a.23108.23108,0,0,1-.23108.23108H2.90608a.231.231,0,0,1-.231-.231V21.959A.23121.23121,0,0,1,2.90633,21.72781Z" fill="#fac60d"/><path d="M5.24983,20.65871H6.54446a.231.231,0,0,1,.231.231v1.2794a.23126.23126,0,0,1-.23126.23126H5.24978a.231.231,0,0,1-.231-.231V20.88974A.231.231,0,0,1,5.24983,20.65871Z" fill="#fac60d"/></svg>