<svg id="Layer_1" data-name="Layer 1" xmlns="http://www.w3.org/2000/svg" viewBox="0 0 151.64 151.64"><defs><style>.cls-1{fill:red;}.cls-2{fill:#fff;}</style></defs><rect class="cls-1" x="-23.3" y="-34.81" width="226.13" height="226.13"/><path class="cls-2" d="M134,46.58a15.2,15.2,0,0,0-10.74-10.74c-9.47-2.54-47.46-2.54-47.46-2.54s-38,0-47.46,2.54A15.2,15.2,0,0,0,17.62,46.58c-2.54,9.47-2.54,29.24-2.54,29.24s0,19.77,2.54,29.24A15.2,15.2,0,0,0,28.36,115.8c9.47,2.54,47.46,2.54,47.46,2.54s38,0,47.46-2.54A15.2,15.2,0,0,0,134,105.06c2.54-9.47,2.54-29.24,2.54-29.24S136.56,56.05,134,46.58Z"/><polygon class="cls-1" points="63.67 94.04 95.23 75.82 63.67 57.6 63.67 94.04"/></svg>